<svg width="616" height="482" viewBox="0 0 616 482" fill="none" xmlns="http://www.w3.org/2000/svg">
<path d="M456.345 131.903C437.508 111.798 422.926 87.7965 400.411 71.3886C365.047 45.5624 314.15 43.0439 272.798 59.2686C231.446 75.4924 199.233 108.196 178.001 145.227C166.832 164.71 158.06 185.963 141.694 201.884C127.86 215.335 109.676 223.917 92.4355 233.264C64.6387 248.293 37.8695 266.454 19.8808 291.372C1.8939 316.29 -6.14838 349.017 5.35008 377.099C13.104 396.048 28.7224 411.125 44.7226 424.775C63.5519 440.825 83.7897 455.853 107.146 465.416C136.386 477.313 168.845 479.871 200.677 481.082C257.107 483.22 313.629 481.622 369.82 476.301C415.834 471.95 463.241 464.523 501.739 440.482C555.668 406.814 583.473 345.129 589.733 284.639C592.281 260.446 591.636 235.304 581.682 212.857C557.877 159.164 493.646 171.722 456.344 131.903H456.345Z" fill="#EFF1F7"/>
<path d="M258.701 160.329C258.701 160.329 239.179 156.863 233.711 170.524C228.243 184.184 233.711 231.362 233.711 231.362L306.544 283.416L258.701 160.329Z" fill="#3F3D56"/>
<path d="M350.294 368.943L321.417 377.184C317.221 378.372 312.821 376.065 311.572 372.026C310.34 367.983 312.732 363.74 316.922 362.537L345.76 354.289C349.953 353.101 354.353 355.402 355.606 359.439C356.85 363.476 354.477 367.723 350.294 368.943V368.943Z" fill="#2BD0D0"/>
<path d="M348.88 399.84C356.025 399.84 361.816 394.048 361.816 386.904C361.816 379.76 356.025 373.968 348.88 373.968C341.736 373.968 335.944 379.76 335.944 386.904C335.944 394.048 341.736 399.84 348.88 399.84Z" fill="#25233A"/>
<path d="M347.116 396.312C350.688 396.312 353.584 393.416 353.584 389.844C353.584 386.272 350.688 383.376 347.116 383.376C343.544 383.376 340.648 386.272 340.648 389.844C340.648 393.416 343.544 396.312 347.116 396.312Z" fill="#3F3D56"/>
<path d="M295.96 386.904C303.105 386.904 308.896 381.112 308.896 373.968C308.896 366.824 303.105 361.032 295.96 361.032C288.816 361.032 283.024 366.824 283.024 373.968C283.024 381.112 288.816 386.904 295.96 386.904Z" fill="#25233A"/>
<path d="M300.664 374.556C300.664 376.271 299.983 377.917 298.77 379.13C297.557 380.343 295.912 381.024 294.196 381.024C292.481 381.024 290.836 380.343 289.623 379.13C288.41 377.917 287.728 376.271 287.728 374.556C287.728 372.841 288.41 371.195 289.623 369.982C290.836 368.769 292.481 368.088 294.196 368.088C295.912 368.088 297.557 368.769 298.77 369.982C299.983 371.195 300.664 372.841 300.664 374.556V374.556Z" fill="url(#paint0_linear)"/>
<path d="M292.432 404.544C299.577 404.544 305.368 398.752 305.368 391.608C305.368 384.464 299.577 378.672 292.432 378.672C285.288 378.672 279.496 384.464 279.496 391.608C279.496 398.752 285.288 404.544 292.432 404.544Z" fill="#25233A"/>
<path d="M303.016 392.196C303.016 393.911 302.335 395.557 301.122 396.77C299.909 397.983 298.264 398.664 296.548 398.664C294.833 398.664 293.188 397.983 291.975 396.77C290.762 395.557 290.08 393.911 290.08 392.196C290.08 390.481 290.762 388.835 291.975 387.622C293.188 386.409 294.833 385.728 296.548 385.728C298.264 385.728 299.909 386.409 301.122 387.622C302.335 388.835 303.016 390.481 303.016 392.196Z" fill="#3F3D56"/>
<path d="M351.332 382.052L291.607 370.238C287.404 369.395 284.687 365.381 285.529 361.258C286.39 357.142 290.48 354.479 294.684 355.3L354.41 367.092C358.613 367.935 361.329 371.949 360.487 376.073C359.637 380.197 355.543 382.871 351.332 382.052V382.052Z" fill="#2BD0D0"/>
<path d="M314.776 286.944H331.24V356.328C331.24 360.874 327.556 364.56 323.012 364.56C320.829 364.559 318.736 363.691 317.193 362.148C315.651 360.604 314.784 358.511 314.784 356.328V286.944H314.776Z" fill="#2BD0D0"/>
<path d="M320.876 377.153L292.021 385.414C287.825 386.606 283.419 384.298 282.172 380.254C280.94 376.208 283.332 371.963 287.52 370.759L316.376 362.521C320.567 361.333 324.965 363.636 326.216 367.673C327.438 371.712 325.052 375.945 320.876 377.151V377.153Z" fill="#2BD0D0"/>
<path d="M326.536 376.626L322.861 377.274C321.745 377.467 320.611 377.535 319.48 377.476L321.015 377.208C322.031 377.039 323.022 376.74 323.963 376.32L326.536 376.626Z" fill="url(#paint1_linear)"/>
<path d="M355.936 360.724C355.939 362.539 355.335 364.304 354.219 365.736L330.064 360.62C330.675 359.746 331.114 358.764 331.355 357.725L346.237 353.112C347.195 352.823 348.202 352.734 349.196 352.851C350.19 352.968 351.149 353.289 352.014 353.793C353.778 354.812 355.082 356.526 355.64 358.553C355.833 359.259 355.933 359.99 355.936 360.724V360.724Z" fill="url(#paint2_linear)"/>
<path opacity="0.31" d="M313.859 358.801C313.687 358.197 313.6 357.571 313.6 356.943V288.12H320.589V362.29C320.52 362.655 320.542 363.028 320.656 363.384C319.579 363.01 318.45 362.807 317.31 362.783C316.499 362.736 315.682 362.736 314.869 362.783L315.369 362.665C315.677 362.618 314.263 360.206 313.86 358.801H313.859Z" fill="url(#paint3_linear)"/>
<path opacity="0.31" d="M357.452 380.789C356.311 381.404 355.028 381.726 353.724 381.725C353.199 381.723 352.675 381.672 352.16 381.572L325.809 376.391L323.614 375.964C322.861 376.527 322.01 376.948 321.105 377.204L319.8 377.577L292.723 385.416C288.59 386.601 284.253 384.307 283.024 380.287C285.373 382.409 288.938 382.607 291.518 380.758C294.824 378.528 307.985 375.18 315.439 373.4C318.963 372.579 321.658 369.813 322.317 366.344C322.336 366.141 322.366 365.937 322.411 365.736C323.653 367.045 325.935 368.514 330.061 369.761C340.221 372.806 356.717 374.823 356.717 374.823C356.717 374.823 359.695 377.669 357.452 380.789V380.789Z" fill="url(#paint4_linear)"/>
<path d="M359.464 378.672C358.834 379.596 358.036 380.394 357.112 381.024C357.905 380.249 358.689 379.465 359.464 378.672V378.672Z" fill="url(#paint5_linear)"/>
<path d="M315.129 358.161C315.458 359.544 316.148 360.814 317.128 361.842C316.881 361.888 316.628 361.95 316.374 362.02L291.36 369.264C287.513 368.308 284.979 364.719 285.428 360.86C285.876 357.003 289.169 354.062 293.138 353.976C293.671 353.977 294.202 354.029 294.725 354.131L315.129 358.161V358.161Z" fill="url(#paint6_linear)"/>
<path d="M353.584 27.5269C353.584 27.5269 353.26 3.06022 333.504 5.17114C313.747 7.27971 315.263 -0.820581 306.824 0.068474C298.386 0.958705 288.584 9.22481 291.399 19.4348C294.215 29.6449 283.952 31.9275 277.211 39.6738C270.469 47.4201 278.798 53.7575 290.154 61.331C301.511 68.9044 289.449 66.944 296.181 78.918C302.915 90.8909 325.707 75.5958 325.707 75.5958L353.584 27.5269Z" fill="#503164"/>
<path d="M193.253 433.475L207.048 433.944V323.7C207.048 323.7 207.741 295.193 234.627 292.333C261.512 289.474 505.337 254.153 505.337 254.153C505.337 254.153 515.002 253.129 520.568 271.676C526.134 290.223 531.552 363.154 531.552 363.154L606.392 373.24C606.392 373.24 608.368 244.409 581.341 237.3C554.315 230.192 200.879 266.418 200.879 266.418C200.879 266.418 174.666 403.248 193.253 433.475V433.475Z" fill="#2BD0D0"/>
<path opacity="0.197" d="M193.253 433.475L207.048 433.944V323.7C207.048 323.7 207.741 295.193 234.627 292.333C261.512 289.474 505.337 254.153 505.337 254.153C505.337 254.153 515.002 253.129 520.568 271.676C526.134 290.223 531.552 363.154 531.552 363.154L606.392 373.24C606.392 373.24 608.368 244.409 581.341 237.3C554.315 230.192 200.879 266.418 200.879 266.418C200.879 266.418 174.666 403.248 193.253 433.475V433.475Z" fill="url(#paint7_linear)"/>
<path d="M121.912 279.634C121.912 279.634 128.667 242.289 176.178 232.501L511.553 194.113C511.553 194.113 544.476 192.749 559.538 201.859C574.6 210.969 596.098 218.521 604.912 259.746C613.726 300.971 615.832 371.397 615.832 371.397L607.494 372.691C607.494 372.691 595.325 245.166 582.431 237.091C569.539 229.018 220.927 278.551 220.927 278.551C220.927 278.551 196.747 283.358 194.641 319.161C192.536 354.962 194.641 432.768 194.641 432.768L121.912 403.435V279.634Z" fill="#2BD0D0"/>
<path opacity="0.19" d="M466.98 209.145C449.62 206.91 432.119 205.292 414.626 205.946C401.478 206.455 388.417 208.258 375.38 210.054L260.397 225.933C258.445 226.204 256.222 226.642 255.246 228.337C253.374 231.573 257.774 234.763 261.34 235.995C299.572 249.232 340.418 262.639 379.773 253.2C397.765 248.885 414.477 239.925 432.728 236.812C450.977 233.7 469.711 236.565 487.921 233.63C505.04 230.872 521.339 223.036 538.691 222.959C544.013 222.959 549.49 223.638 554.538 221.972C559.586 220.308 564.049 215.223 562.652 210.154C546.361 209.592 528.073 206.617 512.094 209.846C496.278 213.035 482.818 209.145 466.98 209.145V209.145Z" fill="url(#paint8_linear)"/>
<path d="M362.992 227.415L363.662 229.901C363.662 229.901 383.515 241.865 383.39 242.25C383.265 242.636 465.738 223.152 465.738 223.152L467.656 217.56L362.992 227.415Z" fill="#2BD0D0"/>
<path d="M362.992 227.415L363.662 229.901C363.662 229.901 383.515 241.865 383.39 242.25C383.265 242.636 465.738 223.152 465.738 223.152L467.656 217.56L362.992 227.415Z" fill="url(#paint9_linear)"/>
<path d="M364.168 227.396L437.206 211.68L467.656 217.624L384.68 237.552L364.168 227.396Z" fill="#2BD0D0"/>
<path d="M364.168 227.396L437.206 211.68L467.656 217.624L384.68 237.552L364.168 227.396Z" fill="url(#paint10_linear)"/>
<path d="M340.451 240.473L357.452 241.075C357.452 241.075 361.77 241.344 362.885 237.88C364.002 234.417 355.959 227.108 355.098 226.97C354.236 226.832 331.86 233.109 335.086 239.384L340.451 240.473Z" fill="#2BD0D0"/>
<path d="M340.451 240.473L357.452 241.075C357.452 241.075 361.77 241.344 362.885 237.88C364.002 234.417 355.959 227.108 355.098 226.97C354.236 226.832 331.86 233.109 335.086 239.384L340.451 240.473Z" fill="url(#paint11_linear)"/>
<path d="M141.904 411.666L133.604 437.158C109.528 445.803 89.0572 437.158 89.0572 437.158L83.1043 410.424C83.1043 410.424 113.133 420.491 141.904 411.666Z" fill="#2BD0D0"/>
<path d="M141.904 411.666L133.604 437.158C109.528 445.803 89.0572 437.158 89.0572 437.158L83.1043 410.424C83.1043 410.424 113.133 420.491 141.904 411.666Z" fill="url(#paint12_linear)"/>
<path d="M151.312 388.08L148.626 408.005L141.822 411.542C112.836 420.268 82.534 410.322 82.534 410.322L77.309 406.461L74.8723 388.08H151.312Z" fill="#2BD0D0"/>
<path d="M151.312 388.08L148.626 408.005L141.822 411.542C112.836 420.268 82.534 410.322 82.534 410.322L77.309 406.461L74.8723 388.08H151.312Z" fill="url(#paint13_linear)"/>
<path d="M113.092 393.96C134.201 393.96 151.312 390.801 151.312 386.904C151.312 383.007 134.201 379.848 113.092 379.848C91.984 379.848 74.8723 383.007 74.8723 386.904C74.8723 390.801 91.984 393.96 113.092 393.96Z" fill="#2BD0D0"/>
<path d="M113.092 393.96C134.201 393.96 151.312 390.801 151.312 386.904C151.312 383.007 134.201 379.848 113.092 379.848C91.984 379.848 74.8723 383.007 74.8723 386.904C74.8723 390.801 91.984 393.96 113.092 393.96Z" fill="url(#paint14_linear)"/>
<path d="M95.6182 234.059C91.8761 232.278 87.853 230.934 84.6155 228.332C78.0922 223.04 76.4388 213.929 74.3961 205.755C72.3545 197.581 68.402 188.594 60.3499 186.249C57.337 185.382 53.8032 185.726 51.5123 187.884C49.098 190.157 48.6076 193.893 49.2685 197.191C49.9282 200.488 51.5358 203.442 52.7789 206.568C55.6805 213.833 56.5631 221.747 55.3331 229.473C54.3159 235.81 51.8851 242.234 53.4457 248.447C56.094 258.988 69.2864 265.169 69.6509 276.032C69.9002 283.362 63.9062 290.145 65.2644 297.359C66.2664 302.695 71.1503 306.861 71.4149 312.285C71.7089 318.435 65.9324 323.639 66.2123 329.789C66.491 335.94 72.5944 340.05 76.5787 344.888C79.9212 348.958 81.9061 353.972 82.2553 359.227C82.4646 362.509 82.0448 365.909 83.1091 369.019C83.8852 371.293 85.4375 373.224 86.6418 375.271C87.9706 377.482 88.9714 379.874 90.5708 381.921C92.5723 384.469 95.2955 386.353 98.3847 387.329C101.474 388.305 104.786 388.326 107.887 387.391C109.122 379.218 108.043 370.88 108.385 362.618C109.06 346.614 115.077 330.485 111.226 314.949C109.814 309.253 107.096 303.844 106.614 298C106.187 292.778 107.569 287.606 108.532 282.456C110.519 271.821 110.489 260.825 109.673 250.072C109.029 241.539 103.066 237.607 95.6193 234.059H95.6182Z" fill="#2BD0D0"/>
<path d="M119.269 276.086C119.206 283.215 120.833 290.586 118.549 297.354C116.82 302.484 113.019 306.684 111.057 311.728C106.529 323.369 112.621 336.424 111.378 348.855C110.86 353.975 109.101 358.894 107.991 363.923C106.612 370.288 106.274 376.835 106.99 383.309C106.917 384.488 107.273 385.654 107.991 386.593C108.71 387.531 109.743 388.178 110.9 388.415C114.732 389.874 118.702 390.944 122.748 391.608C121.38 384.071 122.822 376.293 126.8 369.746C133.002 359.597 145.054 352.758 147.297 341.1C148.814 333.207 145.281 325.196 145.531 317.163C145.712 311.815 147.554 306.658 150.802 302.406C153.718 298.611 157.669 295.676 160.383 291.74C166.905 282.254 164.872 269.575 162.932 258.231C160.992 246.886 159.867 233.831 167.53 225.236C169.955 222.519 173.114 220.48 175.312 217.577C180.208 211.104 178.972 201.133 173.278 195.348C167.586 189.562 158.419 187.963 150.677 190.507C147.412 191.467 144.53 193.424 142.433 196.105C138.523 201.649 140.087 209.222 141.746 215.811C143.192 221.535 144.357 228.139 142.379 233.91C140.901 238.204 137.154 240.531 133.971 243.52C129.461 247.685 125.835 252.714 123.309 258.309C120.783 263.903 119.409 269.949 119.269 276.086V276.086Z" fill="#2BD0D0"/>
<path d="M111.401 339.302C110.298 347.055 108.706 354.871 108.379 362.647V363.429C108.362 363.622 108.318 363.811 108.248 363.992C106.87 370.364 106.527 376.916 107.23 383.397C107.272 384.447 107.537 385.476 108.006 386.415C107.969 386.743 107.921 387.063 107.876 387.391C104.773 388.327 101.46 388.305 98.37 387.329C95.2797 386.353 92.5555 384.468 90.5531 381.92C89.0008 379.873 87.9507 377.481 86.623 375.27C85.3799 373.214 83.8652 371.283 83.0891 369.017C82.0248 365.89 82.4435 362.507 82.2341 359.225C81.8854 353.968 79.9 348.953 76.5564 344.882C72.5709 340.076 66.4581 336.043 66.1864 329.79C65.9148 323.538 71.6854 318.435 71.3902 312.283C71.1268 306.86 66.2405 302.694 65.2398 297.356C63.8791 290.142 69.8991 283.358 69.6274 276.027C69.2629 265.163 56.0658 258.981 53.4163 248.438C51.8639 242.224 54.2865 235.8 55.3037 229.462C56.5399 221.746 55.6679 213.839 52.78 206.577C51.537 203.452 49.9294 200.506 49.2685 197.199C48.6088 193.894 49.098 190.165 51.5135 187.883C53.8443 185.726 57.3394 185.382 60.3535 186.249C68.4161 188.594 72.3534 197.614 74.4043 205.788C76.4553 213.964 78.1017 223.069 84.6261 228.368C87.8507 230.987 91.8891 232.314 95.6335 234.097C103.089 237.645 109.055 241.576 109.693 250.032C110.469 260.786 110.539 271.783 108.552 282.42C107.587 287.571 106.221 292.745 106.633 297.966C107.044 303.187 109.304 308.126 110.78 313.19C110.944 313.76 111.106 314.339 111.246 314.918C113.204 322.96 112.575 331.096 111.401 339.302V339.302Z" fill="#30C59B"/>
<path d="M107.469 385.728C107.113 384.792 106.914 383.803 106.878 382.802C106.373 376.499 106.624 370.125 107.627 363.931C107.655 363.749 107.689 363.566 107.722 363.384C107.52 370.847 108.161 378.371 107.469 385.728V385.728Z" fill="url(#paint15_linear)"/>
<path d="M175.294 217.577C173.094 220.481 169.93 222.518 167.501 225.236C159.825 233.824 160.953 246.886 162.896 258.231C164.837 269.575 166.874 282.254 160.342 291.741C157.625 295.645 153.669 298.611 150.747 302.406C147.494 306.656 145.648 311.814 145.466 317.163C145.217 325.196 148.757 333.207 147.237 341.1C144.99 352.758 132.92 359.613 126.708 369.747C122.739 376.297 121.307 384.074 122.681 391.608C118.639 390.944 114.674 389.875 110.846 388.415C109.8 388.105 108.851 387.532 108.09 386.751C107.982 386.624 107.884 386.489 107.799 386.345C107.314 385.416 107.034 384.394 106.977 383.347C106.273 376.872 106.624 370.325 108.019 363.961C108.058 363.773 108.105 363.586 108.152 363.399C109.264 358.566 110.91 353.827 111.411 348.892C111.677 345.693 111.614 342.475 111.222 339.289C112.406 331.091 113.039 322.964 111.043 314.983C110.901 314.407 110.737 313.829 110.572 313.258C110.722 312.758 110.893 312.259 111.09 311.767C113.056 306.723 116.863 302.524 118.592 297.393C120.873 290.624 119.251 283.254 119.313 276.125C119.416 263.812 124.985 251.923 133.93 243.52C137.117 240.531 140.869 238.205 142.35 233.91C144.332 228.139 143.133 221.535 141.715 215.811C140.047 209.222 138.465 201.649 142.405 196.105C144.363 193.357 147.45 191.569 150.661 190.507C158.384 187.961 167.603 189.562 173.298 195.348C178.992 201.134 180.198 211.142 175.294 217.577V217.577Z" fill="#30C59B"/>
<path d="M314.274 94.2519C314.274 94.2519 281.561 99.3087 266.43 135.385C251.298 171.461 259.167 216.156 259.431 220.089C259.696 224.021 305.799 241.08 318.978 241.08C332.159 241.08 334.903 227.875 334.903 227.875L311.615 217.958L382.375 209.786H395.08L388.082 221.583C388.082 221.583 401.892 223.03 411.122 223.36C420.352 223.691 426.62 205.438 427.653 196.36C428.688 187.285 386.885 107.622 380.64 102.904C374.396 98.1844 357.453 86.6549 314.274 94.2519V94.2519Z" fill="#2BD0D0"/>
<path d="M352.869 26.7848C352.869 26.7848 358.787 30.1129 358.255 40.8792C357.722 51.6455 354.386 67.8472 351.019 72.0432C347.651 76.2415 335.872 77.8855 335.872 77.8855C335.872 77.8855 342.298 93.1465 347.08 97.0849C351.861 101.023 342.275 115.533 332.95 110.772C323.627 106.011 312.817 94.0543 312.817 94.0543C312.817 94.0543 320.593 79.6542 317.963 72.0749C315.335 64.4956 305.295 37.8957 312.817 30.6303C320.339 23.3627 336.556 12.9492 352.869 26.7848V26.7848Z" fill="url(#paint16_linear)"/>
<path opacity="0.25" d="M301.057 145.824L295.96 209.393L311.528 217.56L324.184 215.352L308.393 195.943L301.057 145.824ZM382.984 142.296C382.984 142.296 404.045 191.779 394.709 209.328L387.516 207.964L382.984 142.296Z" fill="white"/>
<path d="M325.974 225.845C325.974 225.845 318.017 232.636 321.569 237.919C325.12 243.2 329.36 243.05 332.895 240.688C336.43 238.326 343.374 232.72 351.647 235.293C359.92 237.866 361.93 239.503 361.93 239.503C361.93 239.503 366.287 236.779 365.157 234.048C364.026 231.316 355.373 222.464 352.866 221.317C350.358 220.171 339.95 223.694 339.95 223.694C339.95 223.694 332.302 221.627 325.974 225.846V225.845Z" fill="url(#paint17_linear)"/>
<path d="M396.145 211.207C396.145 211.207 388.636 212.1 386.739 217.037C384.842 221.974 384.16 222.576 384.16 222.576C384.16 222.576 388.401 223.387 390.165 221.089C391.929 218.791 393.762 219.757 393.762 219.757L393.236 222.705C393.236 222.705 404.759 224.442 409.964 222.576C415.168 220.707 417.402 218.515 417.402 218.515L419.44 213.529C419.44 213.529 414.524 209.966 410.818 209.413C407.111 208.86 396.145 211.207 396.145 211.207V211.207Z" fill="url(#paint18_linear)"/>
<path d="M435.778 263.424C435.778 263.424 461.573 283.048 459.279 309.593C456.987 336.137 453.619 375.551 453.619 375.551C453.619 375.551 443.216 379.928 436.324 375.551C429.43 371.174 425.257 311.283 421.841 305.564C418.426 299.844 397.881 274.059 375.928 271.837L435.778 263.424Z" fill="#25233A"/>
<path d="M306.544 282.308C306.544 282.308 318.826 293.945 340.721 297.599C362.617 301.252 372.822 304.302 379.514 323.006C386.205 341.71 392.624 381.967 394.725 386.467C396.826 390.966 405.759 388.67 405.759 388.67C405.759 388.67 410.811 382.914 410.811 350.904C410.811 306.28 413.933 297.133 402.681 285.923C391.429 274.712 381.193 271.656 381.193 271.656L306.544 282.308Z" fill="#3F3D56"/>
<path d="M394.744 388.08L396.884 404.776H400.892C400.892 404.776 426.703 406.172 427.512 405.569C428.321 404.966 426.269 392.348 416.491 392.704C406.711 393.062 406.07 390.325 406.07 390.325L394.744 388.08ZM438.256 376.503L442.393 392.784L487.595 386.655C487.595 386.655 489.186 375.961 474.867 377.022C471.088 377.297 468.272 379.921 463.729 379.944C459.187 379.968 454.835 378.13 452.544 375.144L438.256 376.503Z" fill="#25233A"/>
<path d="M592.081 172.092L424.804 181.094C420.758 181.306 417.306 178.189 417.088 174.125V54.6525C417.092 49.8297 420.93 45.8936 425.729 45.7913L592.323 42.3374C593.382 42.316 594.434 42.5042 595.421 42.8911C596.407 43.278 597.307 43.856 598.068 44.5918C599.612 46.0822 600.502 48.1233 600.544 50.2684V163.13C600.538 167.9 596.823 171.835 592.081 172.092V172.092Z" fill="#2BD0D0"/>
<path d="M601.489 172.092L434.204 181.095C430.158 181.303 426.71 178.181 426.496 174.116V54.6525C426.491 49.8285 430.33 45.8889 435.13 45.7913L601.746 42.3374C606.188 42.2551 609.858 45.7984 609.952 50.2613V163.13C609.946 167.901 606.231 171.836 601.489 172.092V172.092Z" fill="#2BD0D0"/>
<path d="M601.489 172.092L434.204 181.095C430.158 181.303 426.71 178.181 426.496 174.116V54.6525C426.491 49.8285 430.33 45.8889 435.13 45.7913L601.746 42.3374C606.188 42.2551 609.858 45.7984 609.952 50.2613V163.13C609.946 167.901 606.231 171.836 601.489 172.092V172.092Z" fill="url(#paint19_linear)"/>
<path d="M552.061 217.722L509.378 222.264C509.378 222.264 496.38 219.642 497.083 217.722C497.788 215.802 511.379 213.953 511.379 213.953V136.568C511.261 136.396 509.472 134.117 504.571 132.665C503.622 132.384 502.656 132.159 501.679 131.994C500.839 131.872 500.023 131.624 499.256 131.261C496.341 129.755 499.562 127.133 504.086 127.015C504.795 126.99 505.504 127.032 506.205 127.14H539.031C539.031 127.14 551.459 130.636 552.061 148.086C552.662 165.536 552.061 217.722 552.061 217.722V217.722Z" fill="#3A3054"/>
<path d="M517.048 217.886L509.195 222.264C509.195 222.264 496.39 219.642 497.083 217.721C497.777 215.802 511.189 213.952 511.189 213.952V136.561C511.027 136.382 509.064 134.329 504.483 132.659C502.778 132.051 501.027 131.581 499.247 131.254C496.375 129.748 499.547 127.126 504.005 127.008C507.801 127.532 515.277 131.745 515.763 134.15C516.247 136.554 517.048 217.886 517.048 217.886V217.886Z" fill="#51466B"/>
<path d="M358.288 379.848C357.252 381.025 356.771 381.459 357.383 380.491C357.7 380.304 358.002 380.089 358.288 379.848Z" fill="url(#paint20_linear)"/>
<defs>
<linearGradient id="paint0_linear" x1="287.728" y1="374.556" x2="300.664" y2="374.556" gradientUnits="userSpaceOnUse">
<stop stop-color="#183866"/>
<stop offset="1" stop-color="#1A7FC1"/>
</linearGradient>
<linearGradient id="paint1_linear" x1="319.471" y1="376.909" x2="326.536" y2="376.909" gradientUnits="userSpaceOnUse">
<stop/>
<stop offset="0.99" stop-opacity="0"/>
</linearGradient>
<linearGradient id="paint2_linear" x1="375.618" y1="279.583" x2="405.691" y2="293.648" gradientUnits="userSpaceOnUse">
<stop/>
<stop offset="0.99" stop-opacity="0"/>
</linearGradient>
<linearGradient id="paint3_linear" x1="317.758" y1="93.9406" x2="313.629" y2="92.8159" gradientUnits="userSpaceOnUse">
<stop/>
<stop offset="0.99" stop-opacity="0"/>
</linearGradient>
<linearGradient id="paint4_linear" x1="400.511" y1="353.086" x2="299.109" y2="319.962" gradientUnits="userSpaceOnUse">
<stop/>
<stop offset="0.99" stop-opacity="0"/>
</linearGradient>
<linearGradient id="paint5_linear" x1="412.644" y1="-11.4047" x2="407.978" y2="-12.8781" gradientUnits="userSpaceOnUse">
<stop/>
<stop offset="0.99" stop-opacity="0"/>
</linearGradient>
<linearGradient id="paint6_linear" x1="362.022" y1="288.841" x2="329.394" y2="297.516" gradientUnits="userSpaceOnUse">
<stop/>
<stop offset="0.99" stop-opacity="0"/>
</linearGradient>
<linearGradient id="paint7_linear" x1="635.183" y1="280.833" x2="37.2827" y2="252.051" gradientUnits="userSpaceOnUse">
<stop/>
<stop offset="1" stop-opacity="0"/>
</linearGradient>
<linearGradient id="paint8_linear" x1="298.456" y1="184.897" x2="606.565" y2="184.897" gradientUnits="userSpaceOnUse">
<stop stop-color="#183866"/>
<stop offset="1" stop-color="#1A7FC1"/>
</linearGradient>
<linearGradient id="paint9_linear" x1="405.262" y1="227.319" x2="408.977" y2="241.754" gradientUnits="userSpaceOnUse">
<stop/>
<stop offset="0.99" stop-opacity="0"/>
</linearGradient>
<linearGradient id="paint10_linear" x1="351.2" y1="223.303" x2="451.554" y2="255.413" gradientUnits="userSpaceOnUse">
<stop/>
<stop offset="0.99" stop-opacity="0"/>
</linearGradient>
<linearGradient id="paint11_linear" x1="349.924" y1="232.933" x2="349.185" y2="238.612" gradientUnits="userSpaceOnUse">
<stop/>
<stop offset="0.99" stop-opacity="0"/>
</linearGradient>
<linearGradient id="paint12_linear" x1="195.369" y1="308.53" x2="143.228" y2="306.517" gradientUnits="userSpaceOnUse">
<stop/>
<stop offset="0.99" stop-opacity="0"/>
</linearGradient>
<linearGradient id="paint13_linear" x1="203.733" y1="353.932" x2="160.17" y2="352.443" gradientUnits="userSpaceOnUse">
<stop/>
<stop offset="0.99" stop-opacity="0"/>
</linearGradient>
<linearGradient id="paint14_linear" x1="118.435" y1="386.003" x2="116.845" y2="393.862" gradientUnits="userSpaceOnUse">
<stop/>
<stop offset="0.99" stop-opacity="0"/>
</linearGradient>
<linearGradient id="paint15_linear" x1="107.308" y1="34.1295" x2="103.652" y2="56.6339" gradientUnits="userSpaceOnUse">
<stop/>
<stop offset="0.99" stop-opacity="0"/>
</linearGradient>
<linearGradient id="paint16_linear" x1="310.053" y1="65.8499" x2="358.287" y2="65.8499" gradientUnits="userSpaceOnUse">
<stop stop-color="#ECC4D7"/>
<stop offset="0.42" stop-color="#EFD4D1"/>
<stop offset="1" stop-color="#F2EAC9"/>
</linearGradient>
<linearGradient id="paint17_linear" x1="364.912" y1="186.523" x2="409.599" y2="186.523" gradientUnits="userSpaceOnUse">
<stop stop-color="#ECC4D7"/>
<stop offset="0.42" stop-color="#EFD4D1"/>
<stop offset="1" stop-color="#F2EAC9"/>
</linearGradient>
<linearGradient id="paint18_linear" x1="428.015" y1="197.395" x2="463.295" y2="197.395" gradientUnits="userSpaceOnUse">
<stop stop-color="#ECC4D7"/>
<stop offset="0.42" stop-color="#EFD4D1"/>
<stop offset="1" stop-color="#F2EAC9"/>
</linearGradient>
<linearGradient id="paint19_linear" x1="662.952" y1="181.604" x2="495.868" y2="292.724" gradientUnits="userSpaceOnUse">
<stop stop-color="#362958" stop-opacity="0.501"/>
<stop offset="1" stop-color="#34313D" stop-opacity="0"/>
</linearGradient>
<linearGradient id="paint20_linear" x1="404.023" y1="-22.469" x2="402.653" y2="-22.9759" gradientUnits="userSpaceOnUse">
<stop/>
<stop offset="0.99" stop-opacity="0"/>
</linearGradient>
</defs>
</svg>
