<svg width="52" height="52" viewBox="0 0 52 52" fill="none" xmlns="http://www.w3.org/2000/svg">
<path d="M44.3828 0H7.61719C3.41742 0 0 3.41742 0 7.61719V44.3828C0 48.5826 3.41742 52 7.61719 52H44.3828C48.5826 52 52 48.5826 52 44.3828V7.61719C52 3.41742 48.5826 0 44.3828 0ZM26.1016 39.6094C18.5411 39.6094 12.3906 33.4589 12.3906 25.8984C12.3906 18.338 18.5411 12.1875 26.1016 12.1875C33.662 12.1875 39.8125 18.338 39.8125 25.8984C39.8125 33.4589 33.662 39.6094 26.1016 39.6094ZM41.3359 15.2344C38.8159 15.2344 36.7656 13.1841 36.7656 10.6641C36.7656 8.14404 38.8159 6.09375 41.3359 6.09375C43.856 6.09375 45.9062 8.14404 45.9062 10.6641C45.9062 13.1841 43.856 15.2344 41.3359 15.2344Z" fill="white"/>
<path d="M41.3359 9.14062C40.4953 9.14062 39.8125 9.82339 39.8125 10.6641C39.8125 11.5047 40.4953 12.1875 41.3359 12.1875C42.1766 12.1875 42.8594 11.5047 42.8594 10.6641C42.8594 9.82339 42.1766 9.14062 41.3359 9.14062Z" fill="white"/>
<path d="M26.1016 15.2344C20.222 15.2344 15.4375 20.0189 15.4375 25.8984C15.4375 31.778 20.222 36.5625 26.1016 36.5625C31.9811 36.5625 36.7656 31.778 36.7656 25.8984C36.7656 20.0189 31.9811 15.2344 26.1016 15.2344Z" fill="white"/>
</svg>
