<svg width="52" height="52" viewBox="0 0 52 52" fill="none" xmlns="http://www.w3.org/2000/svg">
<g clip-path="url(#clip0)">
<path d="M19.3996 47.3325C17.151 47.3325 14.8365 47.1504 12.5081 46.7854C8.40707 46.1419 4.25571 43.9968 3.08099 43.3545L0 41.67L3.33569 40.573C6.98203 39.3741 9.20013 38.6302 11.9459 37.4655C9.19656 36.134 7.07764 33.739 6.05765 30.6429L5.28165 28.2871L5.918 28.3843C5.31458 27.7762 4.8381 27.1588 4.46875 26.5975C3.15518 24.6023 2.45972 22.1644 2.6077 20.0753L2.75369 18.019L3.98474 18.4959C3.46542 17.5152 3.09012 16.4678 2.86954 15.3701C2.33197 12.6929 2.78186 9.84879 4.13669 7.3617L5.20905 5.39313L6.64322 7.11572C11.179 12.5644 16.924 15.7965 23.7426 16.7427C23.4641 14.823 23.6728 12.9702 24.3635 11.3095C25.1677 9.37589 26.5983 7.73621 28.4994 6.56745C30.6108 5.26975 33.1713 4.64093 35.7091 4.79685C38.4017 4.96228 40.8464 5.97116 42.788 7.71637C43.7361 7.47 44.4348 7.20697 45.379 6.8515C45.9471 6.63767 46.5914 6.39487 47.3976 6.11716L50.3683 5.0936L48.431 10.6264C48.5588 10.6157 48.6905 10.6065 48.8282 10.6006L52.0004 10.457L50.1255 13.0194C50.0179 13.1662 49.9906 13.2079 49.9525 13.2654C49.8013 13.4931 49.6133 13.7764 47.0397 17.2129C46.3954 18.0734 46.0737 19.1941 46.1336 20.3692C46.3617 24.8348 45.8138 28.8751 44.5042 32.3774C43.2656 35.6909 41.3463 38.5338 38.8 40.8273C35.6492 43.6647 31.6316 45.6075 26.8581 46.6009C24.5166 47.0881 22.0022 47.3325 19.3996 47.3325V47.3325Z" fill="white"/>
</g>
<defs>
<clipPath id="clip0">
<rect width="52.0002" height="52" fill="white"/>
</clipPath>
</defs>
</svg>
